<svg width="44" height="44" viewBox="0 0 44 44" fill="none" xmlns="http://www.w3.org/2000/svg">
<g filter="url(#filter0_d_1028_2960)">
<rect x="4" y="2" width="36.006" height="36.006" rx="18.003" fill="white" shape-rendering="crispEdges"/>
<path fill-rule="evenodd" clip-rule="evenodd" d="M15 20C15 18.1435 15.7375 16.363 17.0502 15.0503C18.363 13.7375 20.1435 13 22 13C23.8565 13 25.637 13.7375 26.9497 15.0503C28.2625 16.363 29 18.1435 29 20C29 21.8565 28.2625 23.637 26.9497 24.9497C25.637 26.2625 23.8565 27 22 27C20.1435 27 18.363 26.2625 17.0502 24.9497C15.7375 23.637 15 21.8565 15 20ZM21.6005 22.996L25.6307 17.9579L24.9027 17.3755L21.4661 21.6697L19.032 19.6416L18.4347 20.3584L21.6005 22.996Z" fill="#34C759"/>
</g>
<defs>
<filter id="filter0_d_1028_2960" x="0" y="0" width="44.006" height="44.006" filterUnits="userSpaceOnUse" color-interpolation-filters="sRGB">
<feFlood flood-opacity="0" result="BackgroundImageFix"/>
<feColorMatrix in="SourceAlpha" type="matrix" values="0 0 0 0 0 0 0 0 0 0 0 0 0 0 0 0 0 0 127 0" result="hardAlpha"/>
<feOffset dy="2"/>
<feGaussianBlur stdDeviation="2"/>
<feComposite in2="hardAlpha" operator="out"/>
<feColorMatrix type="matrix" values="0 0 0 0 0.203922 0 0 0 0 0.780392 0 0 0 0 0.34902 0 0 0 0.26 0"/>
<feBlend mode="normal" in2="BackgroundImageFix" result="effect1_dropShadow_1028_2960"/>
<feBlend mode="normal" in="SourceGraphic" in2="effect1_dropShadow_1028_2960" result="shape"/>
</filter>
</defs>
</svg>
