<svg width="44" height="44" viewBox="0 0 44 44" fill="none" xmlns="http://www.w3.org/2000/svg">
<g filter="url(#filter0_d_1028_2951)">
<rect x="4" y="2" width="36.006" height="36.006" rx="18.003" fill="white" shape-rendering="crispEdges"/>
<path fill-rule="evenodd" clip-rule="evenodd" d="M29 20C29 21.8565 28.2625 23.637 26.9497 24.9497C25.637 26.2625 23.8565 27 22 27C20.1435 27 18.363 26.2625 17.0502 24.9497C15.7375 23.637 15 21.8565 15 20C15 18.1435 15.7375 16.363 17.0502 15.0502C18.363 13.7375 20.1435 13 22 13C23.8565 13 25.637 13.7375 26.9497 15.0502C28.2625 16.363 29 18.1435 29 20ZM22.875 23.5C22.875 23.7321 22.7828 23.9546 22.6187 24.1187C22.4546 24.2828 22.2321 24.375 22 24.375C21.7679 24.375 21.5454 24.2828 21.3813 24.1187C21.2172 23.9546 21.125 23.7321 21.125 23.5C21.125 23.2679 21.2172 23.0454 21.3813 22.8813C21.5454 22.7172 21.7679 22.625 22 22.625C22.2321 22.625 22.4546 22.7172 22.6187 22.8813C22.7828 23.0454 22.875 23.2679 22.875 23.5ZM22 15.625C21.7679 15.625 21.5454 15.7172 21.3813 15.8813C21.2172 16.0454 21.125 16.2679 21.125 16.5V20C21.125 20.2321 21.2172 20.4546 21.3813 20.6187C21.5454 20.7828 21.7679 20.875 22 20.875C22.2321 20.875 22.4546 20.7828 22.6187 20.6187C22.7828 20.4546 22.875 20.2321 22.875 20V16.5C22.875 16.2679 22.7828 16.0454 22.6187 15.8813C22.4546 15.7172 22.2321 15.625 22 15.625Z" fill="#FF9500"/>
</g>
<defs>
<filter id="filter0_d_1028_2951" x="0" y="0" width="44.006" height="44.006" filterUnits="userSpaceOnUse" color-interpolation-filters="sRGB">
<feFlood flood-opacity="0" result="BackgroundImageFix"/>
<feColorMatrix in="SourceAlpha" type="matrix" values="0 0 0 0 0 0 0 0 0 0 0 0 0 0 0 0 0 0 127 0" result="hardAlpha"/>
<feOffset dy="2"/>
<feGaussianBlur stdDeviation="2"/>
<feComposite in2="hardAlpha" operator="out"/>
<feColorMatrix type="matrix" values="0 0 0 0 1 0 0 0 0 0.584314 0 0 0 0 0 0 0 0 0.26 0"/>
<feBlend mode="normal" in2="BackgroundImageFix" result="effect1_dropShadow_1028_2951"/>
<feBlend mode="normal" in="SourceGraphic" in2="effect1_dropShadow_1028_2951" result="shape"/>
</filter>
</defs>
</svg>
